<?xml version="1.0" standalone="no"?>
<!DOCTYPE svg PUBLIC "-//W3C//DTD SVG 20010904//EN"
 "http://www.w3.org/TR/2001/REC-SVG-20010904/DTD/svg10.dtd">
<svg version="1.0" xmlns="http://www.w3.org/2000/svg"
 width="750.000000pt" height="750.000000pt" viewBox="0 0 750.000000 750.000000"
 preserveAspectRatio="xMidYMid meet">
<metadata>
Created by potrace 1.11, written by Peter Selinger 2001-2013
</metadata>
<g transform="translate(0.000000,750.000000) scale(0.100000,-0.100000)"
fill="#000000" stroke="none">
<path d="M3549 7256 c-2 -2 -42 -6 -89 -10 -47 -4 -101 -9 -120 -11 -73 -9
-116 -15 -140 -20 -13 -2 -40 -7 -60 -10 -47 -7 -78 -13 -98 -19 -9 -3 -33 -8
-52 -11 -19 -3 -53 -11 -75 -16 -22 -6 -47 -12 -56 -14 -9 -2 -47 -13 -85 -24
-38 -11 -72 -21 -76 -21 -7 -1 -198 -68 -293 -103 -22 -8 -64 -26 -94 -41 -30
-14 -60 -26 -66 -26 -6 0 -17 -6 -24 -12 -6 -7 -15 -13 -19 -14 -23 -1 -244
-125 -362 -203 -47 -31 -89 -58 -95 -60 -5 -2 -14 -8 -20 -13 -30 -25 -55 -45
-75 -58 -53 -36 -91 -66 -185 -145 -106 -90 -325 -299 -325 -310 0 -3 -15 -19
-33 -38 -46 -46 -227 -274 -227 -286 0 -5 -4 -11 -8 -13 -5 -1 -28 -32 -53
-68 -24 -36 -47 -66 -51 -68 -5 -2 -8 -7 -8 -12 0 -4 -24 -46 -53 -93 -30 -46
-59 -99 -67 -116 -7 -17 -16 -31 -21 -31 -5 0 -9 -8 -9 -19 0 -10 -7 -24 -15
-31 -8 -6 -14 -15 -13 -18 1 -4 -17 -45 -39 -92 -96 -202 -203 -504 -237 -671
-3 -13 -12 -58 -21 -99 -21 -94 -21 -96 -30 -150 -3 -25 -9 -58 -12 -75 -8
-49 -20 -140 -29 -220 -4 -36 -16 -196 -15 -210 2 -98 2 -172 1 -180 -2 -5 -2
-14 -1 -19 1 -4 4 -45 6 -90 3 -44 7 -97 10 -116 2 -19 7 -60 10 -90 4 -30 8
-66 11 -80 2 -14 7 -45 10 -69 5 -36 30 -160 59 -296 26 -120 131 -443 176
-543 16 -34 29 -65 29 -68 0 -11 139 -283 150 -294 3 -3 16 -25 29 -50 67
-125 254 -384 373 -517 65 -73 358 -363 409 -405 47 -40 51 -43 144 -114 70
-54 285 -197 365 -243 64 -36 375 -191 385 -191 4 0 23 -7 43 -16 64 -28 75
-32 148 -58 76 -26 262 -82 304 -90 14 -3 34 -7 45 -10 85 -20 209 -45 260
-51 17 -2 59 -9 95 -14 36 -6 79 -13 95 -15 17 -2 30 -5 30 -6 0 -15 549 -20
675 -7 109 12 205 24 205 27 0 1 18 4 40 6 32 3 279 57 368 79 9 3 25 7 35 9
55 13 260 80 337 109 155 60 349 154 474 229 34 21 65 38 66 38 13 0 267 177
359 250 186 147 473 428 545 534 8 12 17 23 21 26 3 3 21 25 40 50 19 25 38
50 43 55 68 85 211 306 277 430 23 44 47 86 52 93 6 6 7 12 3 12 -5 0 0 9 10
20 10 11 16 20 12 20 -3 0 8 28 25 62 32 66 104 243 110 268 2 8 6 17 9 20 19
17 128 444 155 609 3 18 8 43 10 55 2 11 7 41 10 66 3 25 7 56 10 70 12 72 19
228 19 415 0 187 -4 265 -20 385 -3 19 -7 55 -10 80 -3 25 -8 54 -11 65 -3 11
-7 36 -9 55 -2 19 -9 54 -15 77 -5 24 -10 46 -9 50 1 5 0 10 -1 13 -1 3 -3 13
-5 24 -10 53 -47 193 -56 208 -5 10 -9 26 -9 35 0 17 -70 235 -89 278 -5 11
-16 38 -24 60 -9 22 -26 63 -38 90 -13 28 -24 52 -24 55 -5 24 -164 315 -226
412 -68 107 -199 285 -231 316 -10 9 -18 19 -18 23 0 18 -342 368 -455 466
-38 33 -104 86 -145 117 -41 31 -80 60 -86 65 -5 4 -30 21 -55 37 -24 16 -45
32 -47 37 -2 4 -8 7 -14 7 -5 0 -24 11 -42 25 -18 14 -38 25 -44 25 -7 0 -12
4 -12 8 0 4 -12 13 -27 20 -16 6 -46 23 -68 37 -33 21 -292 151 -370 186 -148
66 -544 183 -688 204 -23 4 -60 10 -82 15 -22 5 -62 11 -90 15 -27 4 -59 8
-70 10 -11 1 -44 6 -74 10 -30 3 -63 9 -75 12 -25 6 -501 15 -507 9z m397
-530 c107 -8 220 -21 264 -31 14 -2 45 -7 69 -10 24 -3 46 -7 50 -9 3 -2 22
-7 41 -10 32 -5 134 -30 170 -41 8 -2 44 -13 80 -23 36 -10 72 -21 80 -24 228
-83 444 -179 565 -253 22 -13 47 -27 55 -31 57 -27 312 -213 410 -299 73 -64
279 -273 328 -332 28 -34 55 -68 61 -75 6 -7 25 -31 41 -53 16 -22 34 -45 40
-52 5 -7 10 -16 10 -22 0 -5 3 -11 8 -13 8 -3 85 -114 95 -138 4 -8 16 -28 26
-45 68 -105 166 -304 218 -440 18 -49 38 -99 43 -110 8 -18 29 -82 37 -110 4
-16 20 -76 36 -132 9 -29 13 -53 11 -53 -3 0 -2 -6 3 -12 8 -14 12 -28 18 -73
2 -16 7 -41 10 -55 5 -25 11 -58 20 -114 9 -58 16 -156 12 -156 -22 0 -93 55
-124 96 -20 27 -45 55 -55 62 -9 7 -23 18 -30 25 -55 54 -225 132 -297 136
-25 1 -48 4 -53 7 -4 3 -17 7 -29 9 -36 7 -91 53 -150 125 -43 52 -95 80 -152
80 -38 0 -75 5 -176 25 -14 2 -27 8 -30 13 -19 26 -115 53 -202 57 -45 2 -64
9 -107 39 -28 20 -55 36 -59 36 -3 0 -14 6 -22 13 -50 43 -216 85 -318 82
-112 -4 -181 29 -305 146 -58 55 -68 59 -165 63 -18 0 -33 3 -33 6 0 3 -30 5
-67 4 -38 -1 -91 -3 -119 -4 -36 -1 -70 7 -115 26 -138 58 -210 67 -529 66
-187 0 -281 -5 -380 -17 -14 -2 -47 -6 -75 -10 -27 -3 -61 -8 -75 -10 -14 -2
-47 -7 -75 -11 -27 -3 -58 -8 -67 -10 -9 -1 -48 -6 -85 -10 -37 -3 -79 -8 -93
-10 -43 -5 -252 -17 -307 -17 -94 0 -35 -40 117 -78 107 -27 97 -24 153 -34
26 -4 47 -10 47 -14 0 -3 -40 -20 -90 -38 -87 -30 -91 -31 -137 -16 -66 20
-111 25 -233 27 l-106 1 -42 36 c-23 20 -61 42 -84 49 -56 18 -86 36 -150 92
-142 122 -165 139 -198 148 -19 6 -55 21 -80 35 -25 14 -53 28 -62 31 -10 4
-18 10 -18 14 0 4 -60 27 -132 50 -73 24 -137 47 -142 51 -6 5 -18 9 -28 9
-10 0 -18 3 -18 8 0 8 77 116 124 174 77 95 95 116 136 161 91 100 222 226
309 297 24 19 48 40 54 45 7 6 30 24 52 40 22 17 42 32 45 35 14 15 111 80
120 80 6 0 10 4 10 8 0 5 12 15 28 23 15 7 56 32 92 54 56 35 326 176 333 174
2 -1 20 6 92 36 67 28 265 94 265 89 0 -4 7 -1 15 6 8 7 15 10 15 6 0 -3 16 0
35 8 19 8 35 13 35 11 0 -2 15 1 33 6 17 6 43 12 57 14 14 2 50 9 80 15 67 14
82 16 145 24 28 4 61 9 73 11 13 2 70 7 125 11 56 3 103 7 104 8 4 3 250 -3
319 -8z m-2887 -1842 c31 -15 78 -37 105 -50 28 -13 57 -24 66 -24 9 0 20 -4
25 -9 6 -5 37 -18 70 -30 82 -31 149 -69 268 -153 56 -40 104 -75 107 -78 17
-18 172 -117 219 -140 77 -37 171 -58 286 -65 138 -8 201 -16 256 -31 l55 -16
65 -141 c35 -78 64 -144 64 -147 1 -8 27 -104 33 -120 3 -8 6 -17 7 -20 23
-87 104 -237 184 -343 44 -59 81 -110 81 -112 0 -2 13 -23 28 -47 32 -49 118
-281 128 -348 11 -67 131 -302 173 -340 12 -10 41 -68 62 -124 25 -67 136
-237 204 -311 25 -27 69 -84 99 -125 59 -83 76 -99 220 -203 152 -110 146
-104 151 -172 7 -76 9 -93 18 -101 4 -4 7 -16 7 -26 0 -11 16 -58 36 -106 59
-143 80 -216 99 -352 7 -48 8 -52 43 -165 17 -55 33 -116 36 -135 16 -98 16
-117 4 -117 -7 0 -29 -4 -48 -8 -19 -4 -48 -9 -65 -10 -16 -2 -59 -6 -95 -10
-139 -15 -379 -20 -495 -10 -103 8 -181 16 -205 20 -14 3 -43 7 -65 10 -34 4
-105 17 -215 41 -107 22 -291 79 -420 129 -91 35 -379 171 -390 184 -3 3 -21
15 -40 25 -19 11 -61 37 -93 58 -32 21 -62 38 -67 38 -5 0 -10 4 -12 8 -1 4
-42 36 -90 71 -49 34 -88 67 -88 73 0 6 -3 9 -6 5 -3 -3 -16 4 -29 16 -12 12
-42 38 -66 57 -69 55 -237 227 -319 325 -41 50 -78 92 -81 95 -18 16 -170 241
-223 330 -93 157 -226 441 -241 512 -2 9 -8 25 -13 35 -6 10 -11 21 -11 25 -1
4 -3 13 -6 20 -6 19 -38 131 -41 143 -1 6 -10 39 -19 75 -9 36 -19 79 -22 95
-2 17 -8 46 -13 65 -5 19 -12 62 -16 95 -3 33 -8 63 -10 66 -1 3 -6 41 -10 85
-3 43 -8 95 -10 114 -4 47 -4 356 0 400 3 19 7 69 10 110 3 41 8 86 11 100 3
14 8 45 11 70 4 37 21 121 39 200 9 40 25 100 40 150 9 30 17 61 17 68 1 6 4
12 7 12 4 0 8 12 9 26 1 15 6 32 10 38 5 6 17 34 27 61 32 89 68 165 78 165 6
0 35 -12 66 -26z m2897 -338 c32 -13 79 -27 104 -31 25 -4 52 -11 60 -15 8 -4
29 -11 45 -14 17 -3 46 -9 65 -14 19 -5 58 -7 87 -5 61 5 78 -3 188 -85 44
-32 98 -68 119 -79 l39 -20 -94 -70 c-172 -129 -286 -196 -409 -239 l-65 -23
155 -1 c85 -1 295 -2 465 -2 357 0 417 9 523 79 31 21 72 43 90 50 43 14 110
8 133 -12 23 -21 96 -45 185 -60 27 -4 74 -29 135 -71 52 -35 100 -64 107 -64
6 0 12 -4 12 -9 0 -8 56 -26 115 -36 17 -3 43 -7 59 -10 65 -12 120 -49 212
-140 69 -69 114 -104 163 -129 69 -34 251 -162 283 -197 17 -20 17 -23 -7
-144 -8 -38 -17 -86 -20 -105 -2 -19 -9 -55 -15 -80 -6 -25 -13 -56 -16 -69
-3 -13 -27 -91 -54 -173 -77 -230 -162 -421 -271 -606 -74 -124 -214 -325
-264 -378 -5 -6 -37 -42 -70 -80 -138 -158 -315 -319 -481 -439 -57 -41 -107
-75 -110 -75 -3 0 -32 -18 -64 -40 -32 -22 -61 -40 -63 -40 -3 0 -35 -18 -71
-40 -36 -22 -70 -40 -75 -40 -5 0 -11 -3 -13 -8 -4 -9 -240 -118 -246 -114 -3
2 -8 -2 -12 -9 -15 -23 -35 -1 -57 62 -34 100 -73 213 -80 229 -3 8 -7 20 -9
25 -1 6 -12 36 -23 67 -12 32 -21 66 -21 76 0 10 -4 22 -9 28 -8 8 -36 127
-48 203 -3 19 -14 50 -26 70 -52 91 -53 93 -62 171 -14 124 -18 148 -32 190
-26 82 -52 110 -178 200 -49 35 -91 68 -93 72 -2 4 -9 8 -15 8 -7 0 -24 11
-39 25 -15 14 -31 25 -35 25 -12 0 -53 40 -88 85 -66 84 -167 211 -180 227
-24 29 -46 78 -61 134 -19 74 -46 125 -92 173 -42 45 -50 58 -82 146 -12 33
-25 67 -29 75 -4 8 -24 69 -45 135 -40 124 -66 196 -76 205 -3 3 -11 16 -18
30 -17 36 -36 64 -129 193 -46 63 -83 118 -83 121 0 8 -115 306 -135 351 -7
17 -23 56 -34 88 l-21 57 23 9 c30 11 91 31 119 38 13 3 75 6 139 8 90 2 137
8 215 30 54 15 104 32 111 37 26 21 150 67 179 68 17 0 57 -11 90 -24z"/>
</g>
</svg>
